# xmcd
#
# Track frame offsets: 
#        150
#        13171
#        27547
#        40034
#        61042
#        77801
#        92720
#        112344
#        134367
#        148508
#        160800
#        175784
#        196795
#
# Disc length: 2995 seconds
#
# Revision: 0
# Processed by: cddbd v1.5.2PL0 Copyright (c) Steve Scherf et al.
# Submitted via: ExactAudioCopy v1.3
#
DISCID=aa0bb10d
DTITLE=ORBO and The Longshots - Prairie Sun
DYEAR=2011
DGENRE=Blues
TTITLE0=Highway Tears
TTITLE1=Cocktails Longdrinks and Goodbyes
TTITLE2=High Grass Dog
TTITLE3=Magic
TTITLE4=Nights Don't Belong To Us (No More) 
TTITLE5=Neon Scar
TTITLE6=God Help Me (If I Can't Love Again)
TTITLE7=New Times
TTITLE8=All Kinds Of Blue
TTITLE9=Crystal Ball
TTITLE10=Black Eye
TTITLE11=Word On The Street
TTITLE12=Prairie Sun
EXTD=
EXTT0=
EXTT1=
EXTT2=
EXTT3=
EXTT4=
EXTT5=
EXTT6=
EXTT7=
EXTT8=
EXTT9=
EXTT10=
EXTT11=
EXTT12=
PLAYORDER=
